<svg width="60" height="57" viewBox="0 0 60 57" fill="none" xmlns="http://www.w3.org/2000/svg">
<rect width="60" height="57" rx="7" fill="black"/>
<path d="M45.6833 26.145L41.3751 29.1695C41.3751 29.1695 41.4124 40.3195 28.7137 42.8888C28.7137 42.8888 32.4156 39.4572 31.5017 35.6628C31.5017 35.6628 33.758 35.2468 33.1606 33.1416C33.1606 33.1416 30.9505 33.8919 29.496 34.5178C28.0398 35.1437 28.0398 35.846 28.431 36.4701C28.8204 37.0942 29.6276 39.1211 28.2105 40.9667C26.7934 42.8123 23.3351 44.7095 20.4512 44.1121C20.4512 44.1121 29.0551 48.8416 38.1817 42.8194C47.3084 36.7972 46.046 27.6937 45.6868 26.1468L45.6833 26.145Z" fill="url(#paint0_linear_172_37)"/>
<path d="M33.1973 16.1538H30.2617V11.1451C30.2617 11.1451 30.468 10 31.7304 10C32.9928 10 33.199 11.1486 33.199 11.1486V16.1538H33.1973Z" fill="white"/>
<path d="M26.3096 17.8772H23.374V12.8684C23.374 12.8684 23.5803 11.7234 24.8427 11.7234C26.1051 11.7234 26.3113 12.872 26.3113 12.872V17.8772H26.3096Z" fill="white"/>
<path d="M36.6408 16.4673V21.428C36.6408 21.428 27.0127 28.3623 24.8435 29.4985C22.6743 30.6329 21.0937 29.6212 20.8465 26.6857C20.5994 23.7501 20.4482 20.4661 20.4482 20.4661L36.6408 16.4691V16.4673Z" fill="url(#paint1_linear_172_37)"/>
<path d="M53 15.9229C53 15.9229 42.1184 14.9379 38.1783 14.4685L42.5398 17.893C42.5398 17.893 34.2062 25.9351 25.9472 30.1205C17.6882 34.306 12.8537 35.7907 10 32.5191C10 32.5191 10.6472 38.4186 20.085 36.2103C29.5246 34.002 40.904 27.6082 46.3466 23.917C46.3466 23.917 47.945 27.0766 48.1726 28.675L52.9982 15.9229H53Z" fill="white"/>
<path d="M25.2887 41.7474C25.2887 41.7474 21.7184 41.7474 18.0752 38.1486C18.0752 38.1486 15.0863 38.154 14.0889 38.0117C14.0889 38.0117 16.1247 41.6354 18.8682 42.9173C21.6117 44.1993 25.2887 41.7474 25.2887 41.7474Z" fill="white"/>
<path d="M21.9303 14.0828V15.9781C21.9303 15.9781 16.1819 19.1893 14.7363 24.0078C13.2908 28.8245 14.9284 32.1654 15.9561 32.8393C15.9561 32.8393 12.7129 34.2208 11.3954 30.7518C10.0779 27.2829 12.2631 22.6582 14.3185 19.993C16.3739 17.3277 20.7728 14.5006 21.9303 14.0845V14.0828Z" fill="white"/>
<path d="M53 15.9229C53 15.9229 42.1184 14.9379 38.1783 14.4685L42.5398 17.893C42.5398 17.893 34.2062 25.9351 25.9472 30.1205C17.6882 34.306 12.8537 35.7907 10 32.5191C10 32.5191 10.6472 38.4186 20.085 36.2103C29.5246 34.002 40.904 27.6082 46.3466 23.917C46.3466 23.917 47.945 27.0766 48.1726 28.675L52.9982 15.9229H53Z" fill="url(#paint2_linear_172_37)"/>
<path d="M25.2887 41.7474C25.2887 41.7474 21.7184 41.7474 18.0752 38.1486C18.0752 38.1486 15.0863 38.154 14.0889 38.0117C14.0889 38.0117 16.1247 41.6354 18.8682 42.9173C21.6117 44.1993 25.2887 41.7474 25.2887 41.7474Z" fill="url(#paint3_linear_172_37)"/>
<path d="M21.9303 14.0828V15.9781C21.9303 15.9781 16.1819 19.1893 14.7363 24.0078C13.2908 28.8245 14.9284 32.1654 15.9561 32.8393C15.9561 32.8393 12.7129 34.2208 11.3954 30.7518C10.0779 27.2829 12.2631 22.6582 14.3185 19.993C16.3739 17.3277 20.7728 14.5006 21.9303 14.0845V14.0828Z" fill="url(#paint4_linear_172_37)"/>
<defs>
<linearGradient id="paint0_linear_172_37" x1="20.4476" y1="36.0113" x2="45.95" y2="36.0113" gradientUnits="userSpaceOnUse">
<stop stop-color="#0891A9"/>
<stop offset="1" stop-color="#83CE31"/>
</linearGradient>
<linearGradient id="paint1_linear_172_37" x1="20.4482" y1="23.2096" x2="36.6408" y2="23.2096" gradientUnits="userSpaceOnUse">
<stop stop-color="#0092D1"/>
<stop offset="1" stop-color="white"/>
</linearGradient>
<linearGradient id="paint2_linear_172_37" x1="10" y1="28.6857" x2="53" y2="28.6857" gradientUnits="userSpaceOnUse">
<stop stop-color="#0063AB"/>
<stop offset="1" stop-color="#73C73C"/>
</linearGradient>
<linearGradient id="paint3_linear_172_37" x1="10.0012" y1="28.6859" x2="53.0012" y2="28.6859" gradientUnits="userSpaceOnUse">
<stop stop-color="#0063AB"/>
<stop offset="1" stop-color="#73C73C"/>
</linearGradient>
<linearGradient id="paint4_linear_172_37" x1="9.99964" y1="28.6858" x2="52.9996" y2="28.6858" gradientUnits="userSpaceOnUse">
<stop stop-color="#0063AB"/>
<stop offset="1" stop-color="#73C73C"/>
</linearGradient>
</defs>
</svg>
